<mxfile host="app.diagrams.net" modified="2023-06-29T10:14:33.246Z" agent="Mozilla/5.0 (Windows NT 10.0; Win64; x64) AppleWebKit/537.36 (KHTML, like Gecko) Chrome/114.0.0.0 Safari/537.36 Edg/114.0.1823.58" etag="aMssEblHlPjOwiU-UxJU" version="21.5.0" type="device" pages="2">
  <diagram name="Page-1" id="LfEgkz40oB-dgn4jgMtU">
    <mxGraphModel dx="2086" dy="701" grid="1" gridSize="10" guides="1" tooltips="1" connect="1" arrows="1" fold="1" page="1" pageScale="1" pageWidth="827" pageHeight="1169" math="0" shadow="0">
      <root>
        <mxCell id="0" />
        <mxCell id="1" parent="0" />
        <mxCell id="8rVLSjM-QixKW2bko5HG-31" value="" style="html=1;verticalLabelPosition=bottom;align=center;labelBackgroundColor=#ffffff;verticalAlign=top;strokeWidth=2;strokeColor=#000000;shadow=0;dashed=0;shape=mxgraph.ios7.icons.user;fillColor=#FFFFFF;fontColor=#ffffff;" parent="1" vertex="1">
          <mxGeometry x="-562.96" y="343.76" width="100" height="100" as="geometry" />
        </mxCell>
        <mxCell id="8rVLSjM-QixKW2bko5HG-32" value="Internet User&lt;br style=&quot;font-size: 15px;&quot;&gt;Client" style="text;html=1;align=center;verticalAlign=middle;resizable=0;points=[];autosize=1;strokeColor=none;fillColor=none;fontFamily=Times New Roman;fontStyle=1;fontSize=15;" parent="1" vertex="1">
          <mxGeometry x="-562.96" y="448.76" width="110" height="50" as="geometry" />
        </mxCell>
        <mxCell id="8rVLSjM-QixKW2bko5HG-33" value="Web Server" style="text;html=1;align=center;verticalAlign=middle;resizable=0;points=[];autosize=1;strokeColor=none;fillColor=none;fontFamily=Times New Roman;fontStyle=1;fontSize=15;" parent="1" vertex="1">
          <mxGeometry x="-565.89" y="43.760000000000005" width="100" height="30" as="geometry" />
        </mxCell>
        <mxCell id="8rVLSjM-QixKW2bko5HG-34" value="" style="image;points=[];aspect=fixed;html=1;align=center;shadow=0;dashed=0;image=img/lib/allied_telesis/computer_and_terminals/Personal_Computer.svg;direction=east;" parent="1" vertex="1">
          <mxGeometry x="-555.76" y="83.76" width="87.74" height="118.9" as="geometry" />
        </mxCell>
        <mxCell id="8rVLSjM-QixKW2bko5HG-35" value="" style="endArrow=classic;html=1;rounded=0;" parent="1" source="8rVLSjM-QixKW2bko5HG-53" edge="1">
          <mxGeometry width="50" height="50" relative="1" as="geometry">
            <mxPoint x="-548.96" y="343.76" as="sourcePoint" />
            <mxPoint x="-548.96" y="203.76" as="targetPoint" />
          </mxGeometry>
        </mxCell>
        <mxCell id="8rVLSjM-QixKW2bko5HG-36" value="" style="endArrow=classic;html=1;rounded=0;" parent="1" source="8rVLSjM-QixKW2bko5HG-64" edge="1">
          <mxGeometry width="50" height="50" relative="1" as="geometry">
            <mxPoint x="-486.9599999999999" y="202.66000000000008" as="sourcePoint" />
            <mxPoint x="-486.9599999999999" y="343.75999999999976" as="targetPoint" />
          </mxGeometry>
        </mxCell>
        <mxCell id="8rVLSjM-QixKW2bko5HG-37" value="" style="edgeStyle=elbowEdgeStyle;elbow=horizontal;endArrow=classic;html=1;curved=0;rounded=0;endSize=8;startSize=8;exitX=1.031;exitY=0.533;exitDx=0;exitDy=0;exitPerimeter=0;strokeColor=#33FF33;entryX=-0.05;entryY=0.393;entryDx=0;entryDy=0;entryPerimeter=0;" parent="1" source="8rVLSjM-QixKW2bko5HG-56" target="8rVLSjM-QixKW2bko5HG-38" edge="1">
          <mxGeometry width="50" height="50" relative="1" as="geometry">
            <mxPoint x="-301.20000000000005" y="610" as="sourcePoint" />
            <mxPoint x="-50" y="470" as="targetPoint" />
            <Array as="points">
              <mxPoint x="-259" y="470" />
              <mxPoint x="-239" y="460" />
              <mxPoint x="-279" y="390" />
              <mxPoint x="-269" y="470" />
            </Array>
          </mxGeometry>
        </mxCell>
        <mxCell id="jyStNNYiCP16IIB175EH-1" value="Q: www.belair.com?" style="edgeLabel;html=1;align=center;verticalAlign=middle;resizable=0;points=[];" parent="8rVLSjM-QixKW2bko5HG-37" vertex="1" connectable="0">
          <mxGeometry x="-0.5524" y="1" relative="1" as="geometry">
            <mxPoint as="offset" />
          </mxGeometry>
        </mxCell>
        <mxCell id="8rVLSjM-QixKW2bko5HG-38" value="" style="verticalLabelPosition=bottom;sketch=0;aspect=fixed;html=1;verticalAlign=top;strokeColor=none;align=center;outlineConnect=0;shape=mxgraph.citrix.dns_server;" parent="1" vertex="1">
          <mxGeometry x="-35.00000000000006" y="422.7800000000001" width="99.24" height="120" as="geometry" />
        </mxCell>
        <mxCell id="8rVLSjM-QixKW2bko5HG-39" value="" style="verticalLabelPosition=bottom;sketch=0;aspect=fixed;html=1;verticalAlign=top;strokeColor=none;align=center;outlineConnect=0;shape=mxgraph.citrix.dns_server;" parent="1" vertex="1">
          <mxGeometry x="338.99999999999994" y="422.7800000000001" width="99.24" height="120" as="geometry" />
        </mxCell>
        <mxCell id="8rVLSjM-QixKW2bko5HG-40" value="" style="verticalLabelPosition=bottom;sketch=0;aspect=fixed;html=1;verticalAlign=top;strokeColor=none;align=center;outlineConnect=0;shape=mxgraph.citrix.dns_server;" parent="1" vertex="1">
          <mxGeometry x="328.99999999999994" y="122.77999999999997" width="99.24" height="120" as="geometry" />
        </mxCell>
        <mxCell id="8rVLSjM-QixKW2bko5HG-41" value="" style="verticalLabelPosition=bottom;sketch=0;aspect=fixed;html=1;verticalAlign=top;strokeColor=none;align=center;outlineConnect=0;shape=mxgraph.citrix.dns_server;" parent="1" vertex="1">
          <mxGeometry x="328.99999999999994" y="692.78" width="99.24" height="120" as="geometry" />
        </mxCell>
        <mxCell id="8rVLSjM-QixKW2bko5HG-42" value="" style="endArrow=classic;html=1;rounded=0;exitX=1;exitY=0.5;exitDx=0;exitDy=0;" parent="1" source="8rVLSjM-QixKW2bko5HG-57" edge="1">
          <mxGeometry width="50" height="50" relative="1" as="geometry">
            <mxPoint x="157.2392191363897" y="453.9330532564941" as="sourcePoint" />
            <mxPoint x="338.99999999999994" y="455.7800000000001" as="targetPoint" />
          </mxGeometry>
        </mxCell>
        <mxCell id="8rVLSjM-QixKW2bko5HG-46" value="" style="endArrow=classic;html=1;rounded=0;entryX=0.957;entryY=0.727;entryDx=0;entryDy=0;entryPerimeter=0;" parent="1" source="8rVLSjM-QixKW2bko5HG-82" target="8rVLSjM-QixKW2bko5HG-38" edge="1">
          <mxGeometry width="50" height="50" relative="1" as="geometry">
            <mxPoint x="338.99999999999994" y="509.78" as="sourcePoint" />
            <mxPoint x="70" y="510" as="targetPoint" />
          </mxGeometry>
        </mxCell>
        <mxCell id="8rVLSjM-QixKW2bko5HG-47" value="" style="edgeStyle=elbowEdgeStyle;elbow=horizontal;endArrow=classic;html=1;curved=0;rounded=0;endSize=8;startSize=8;exitX=0.484;exitY=0.917;exitDx=0;exitDy=0;exitPerimeter=0;entryX=0;entryY=0.75;entryDx=0;entryDy=0;entryPerimeter=0;" parent="1" source="8rVLSjM-QixKW2bko5HG-61" target="8rVLSjM-QixKW2bko5HG-41" edge="1">
          <mxGeometry width="50" height="50" relative="1" as="geometry">
            <mxPoint x="77.96419999999983" y="542.78" as="sourcePoint" />
            <mxPoint x="284.99999999999994" y="762.78" as="targetPoint" />
            <Array as="points">
              <mxPoint x="-30" y="670" />
              <mxPoint x="61" y="660" />
              <mxPoint x="70" y="660" />
              <mxPoint x="77.99999999999994" y="652.78" />
            </Array>
          </mxGeometry>
        </mxCell>
        <mxCell id="8rVLSjM-QixKW2bko5HG-50" value="" style="edgeStyle=elbowEdgeStyle;elbow=horizontal;endArrow=classic;html=1;curved=0;rounded=0;endSize=8;startSize=8;exitX=-0.101;exitY=0.417;exitDx=0;exitDy=0;exitPerimeter=0;entryX=0.64;entryY=0.941;entryDx=0;entryDy=0;entryPerimeter=0;" parent="1" source="8rVLSjM-QixKW2bko5HG-41" target="8rVLSjM-QixKW2bko5HG-87" edge="1">
          <mxGeometry width="50" height="50" relative="1" as="geometry">
            <mxPoint x="87.96419999999983" y="552.78" as="sourcePoint" />
            <mxPoint x="100" y="580" as="targetPoint" />
            <Array as="points">
              <mxPoint x="25" y="640" />
              <mxPoint x="30" y="640" />
              <mxPoint x="90" y="650" />
              <mxPoint x="109.99999999999994" y="672.78" />
            </Array>
          </mxGeometry>
        </mxCell>
        <mxCell id="8rVLSjM-QixKW2bko5HG-51" value="" style="edgeStyle=elbowEdgeStyle;elbow=horizontal;endArrow=classic;html=1;curved=0;rounded=0;endSize=8;startSize=8;exitX=0;exitY=0.5;exitDx=0;exitDy=0;entryX=0.403;entryY=0;entryDx=0;entryDy=0;entryPerimeter=0;" parent="1" source="8rVLSjM-QixKW2bko5HG-63" target="8rVLSjM-QixKW2bko5HG-38" edge="1">
          <mxGeometry width="50" height="50" relative="1" as="geometry">
            <mxPoint x="309.99999999999994" y="162.78" as="sourcePoint" />
            <mxPoint x="69.99999999999994" y="412.7800000000001" as="targetPoint" />
            <Array as="points">
              <mxPoint x="5" y="310" />
              <mxPoint x="69.99999999999994" y="182.78" />
              <mxPoint x="69.99999999999994" y="182.78" />
              <mxPoint x="69.99999999999994" y="242.78000000000006" />
              <mxPoint x="79.99999999999994" y="242.78000000000006" />
              <mxPoint x="149.99999999999994" y="162.78" />
              <mxPoint x="69.99999999999994" y="151.78" />
            </Array>
          </mxGeometry>
        </mxCell>
        <mxCell id="8rVLSjM-QixKW2bko5HG-52" value="" style="edgeStyle=elbowEdgeStyle;elbow=horizontal;endArrow=classic;html=1;curved=0;rounded=0;endSize=8;startSize=8;entryX=0;entryY=0.667;entryDx=0;entryDy=0;entryPerimeter=0;exitX=0.5;exitY=0;exitDx=0;exitDy=0;" parent="1" source="8rVLSjM-QixKW2bko5HG-84" target="8rVLSjM-QixKW2bko5HG-40" edge="1">
          <mxGeometry width="50" height="50" relative="1" as="geometry">
            <mxPoint x="309.99999999999994" y="382.7800000000001" as="sourcePoint" />
            <mxPoint x="109.99999999999994" y="182.78" as="targetPoint" />
            <Array as="points">
              <mxPoint x="30" y="310" />
              <mxPoint x="94.99999999999994" y="362.7800000000001" />
              <mxPoint x="99.99999999999994" y="352.7800000000001" />
              <mxPoint x="89.99999999999994" y="392.7800000000001" />
              <mxPoint x="109.99999999999994" y="312.7800000000001" />
            </Array>
          </mxGeometry>
        </mxCell>
        <mxCell id="8rVLSjM-QixKW2bko5HG-53" value="9" style="ellipse;whiteSpace=wrap;html=1;aspect=fixed;" parent="1" vertex="1">
          <mxGeometry x="-562.96" y="253.76" width="30" height="30" as="geometry" />
        </mxCell>
        <mxCell id="8rVLSjM-QixKW2bko5HG-62" value="7" style="ellipse;whiteSpace=wrap;html=1;aspect=fixed;" parent="1" vertex="1">
          <mxGeometry x="296.99999999999994" y="727.78" width="30" height="30" as="geometry" />
        </mxCell>
        <mxCell id="8rVLSjM-QixKW2bko5HG-64" value="10" style="ellipse;whiteSpace=wrap;html=1;aspect=fixed;" parent="1" vertex="1">
          <mxGeometry x="-502.96000000000004" y="251.76" width="30" height="30" as="geometry" />
        </mxCell>
        <mxCell id="8rVLSjM-QixKW2bko5HG-56" value="1" style="ellipse;whiteSpace=wrap;html=1;aspect=fixed;" parent="1" vertex="1">
          <mxGeometry x="-462.96000000000004" y="377" width="30" height="30" as="geometry" />
        </mxCell>
        <mxCell id="8rVLSjM-QixKW2bko5HG-61" value="6" style="ellipse;whiteSpace=wrap;html=1;aspect=fixed;" parent="1" vertex="1">
          <mxGeometry x="-44.00000000000006" y="572.78" width="30" height="30" as="geometry" />
        </mxCell>
        <mxCell id="8rVLSjM-QixKW2bko5HG-57" value="4" style="ellipse;whiteSpace=wrap;html=1;aspect=fixed;" parent="1" vertex="1">
          <mxGeometry x="52.23999999999995" y="438.7800000000001" width="30" height="30" as="geometry" />
        </mxCell>
        <mxCell id="8rVLSjM-QixKW2bko5HG-63" value="3" style="ellipse;whiteSpace=wrap;html=1;aspect=fixed;" parent="1" vertex="1">
          <mxGeometry x="298.99999999999994" y="142.78" width="30" height="30" as="geometry" />
        </mxCell>
        <mxCell id="8rVLSjM-QixKW2bko5HG-79" value="" style="edgeStyle=elbowEdgeStyle;elbow=horizontal;endArrow=classic;html=1;curved=0;rounded=0;endSize=8;startSize=8;entryX=0.98;entryY=0.712;entryDx=0;entryDy=0;entryPerimeter=0;exitX=0;exitY=0.5;exitDx=0;exitDy=0;fillColor=#60a917;strokeColor=#33FF33;" parent="1" source="8rVLSjM-QixKW2bko5HG-55" edge="1">
          <mxGeometry width="50" height="50" relative="1" as="geometry">
            <mxPoint x="-128" y="495" as="sourcePoint" />
            <mxPoint x="-463.96000000000004" y="414.96000000000004" as="targetPoint" />
            <Array as="points">
              <mxPoint x="-278" y="450" />
              <mxPoint x="-278" y="500" />
              <mxPoint x="-168" y="470" />
              <mxPoint x="-290.20000000000005" y="570" />
              <mxPoint x="-290.20000000000005" y="540" />
              <mxPoint x="-286.20000000000005" y="454" />
            </Array>
          </mxGeometry>
        </mxCell>
        <mxCell id="jyStNNYiCP16IIB175EH-2" value="A:&amp;nbsp; 192.168.0.6" style="edgeLabel;html=1;align=center;verticalAlign=middle;resizable=0;points=[];" parent="8rVLSjM-QixKW2bko5HG-79" vertex="1" connectable="0">
          <mxGeometry x="0.5512" y="1" relative="1" as="geometry">
            <mxPoint x="-1" y="13" as="offset" />
          </mxGeometry>
        </mxCell>
        <mxCell id="8rVLSjM-QixKW2bko5HG-55" value="8" style="ellipse;whiteSpace=wrap;html=1;aspect=fixed;" parent="1" vertex="1">
          <mxGeometry x="-68.00000000000006" y="480.0000000000001" width="30" height="30" as="geometry" />
        </mxCell>
        <mxCell id="8rVLSjM-QixKW2bko5HG-83" value="" style="endArrow=classic;html=1;rounded=0;" parent="1" target="8rVLSjM-QixKW2bko5HG-82" edge="1">
          <mxGeometry width="50" height="50" relative="1" as="geometry">
            <mxPoint x="338.99999999999994" y="509.78" as="sourcePoint" />
            <mxPoint x="138.23999999999995" y="509.78" as="targetPoint" />
          </mxGeometry>
        </mxCell>
        <mxCell id="8rVLSjM-QixKW2bko5HG-82" value="5" style="ellipse;whiteSpace=wrap;html=1;aspect=fixed;" parent="1" vertex="1">
          <mxGeometry x="308.99999999999994" y="494.78" width="30" height="30" as="geometry" />
        </mxCell>
        <mxCell id="8rVLSjM-QixKW2bko5HG-84" value="2" style="ellipse;whiteSpace=wrap;html=1;aspect=fixed;" parent="1" vertex="1">
          <mxGeometry x="14.999999999999943" y="392.7800000000001" width="30" height="30" as="geometry" />
        </mxCell>
        <mxCell id="8rVLSjM-QixKW2bko5HG-87" value="Recursive Name Server" style="text;html=1;align=center;verticalAlign=middle;resizable=0;points=[];autosize=1;strokeColor=none;fillColor=none;fontFamily=Times New Roman;fontStyle=1;fontSize=15;" parent="1" vertex="1">
          <mxGeometry x="-83.76000000000005" y="540.78" width="170" height="30" as="geometry" />
        </mxCell>
        <mxCell id="8rVLSjM-QixKW2bko5HG-88" value="belair.com Name Server" style="text;html=1;align=center;verticalAlign=middle;resizable=0;points=[];autosize=1;strokeColor=none;fillColor=none;fontFamily=Times New Roman;fontStyle=1;fontSize=15;" parent="1" vertex="1">
          <mxGeometry x="288.61999999999995" y="667.76" width="180" height="30" as="geometry" />
        </mxCell>
        <mxCell id="8rVLSjM-QixKW2bko5HG-89" value=".com Name server" style="text;html=1;align=center;verticalAlign=middle;resizable=0;points=[];autosize=1;strokeColor=none;fillColor=none;fontFamily=Times New Roman;fontStyle=1;fontSize=15;" parent="1" vertex="1">
          <mxGeometry x="318.61999999999995" y="392.7800000000001" width="140" height="30" as="geometry" />
        </mxCell>
        <mxCell id="8rVLSjM-QixKW2bko5HG-90" value="Root Name Server" style="text;html=1;align=center;verticalAlign=middle;resizable=0;points=[];autosize=1;strokeColor=none;fillColor=none;fontFamily=Times New Roman;fontStyle=1;fontSize=15;" parent="1" vertex="1">
          <mxGeometry x="308.61999999999995" y="92.55" width="140" height="30" as="geometry" />
        </mxCell>
        <mxCell id="8rVLSjM-QixKW2bko5HG-91" value="Q:www.belair.com" style="text;html=1;align=center;verticalAlign=middle;resizable=0;points=[];autosize=1;strokeColor=none;fillColor=none;fontFamily=Times New Roman;fontStyle=1;fontSize=14;" parent="1" vertex="1">
          <mxGeometry x="135.23999999999995" y="177.78" width="130" height="30" as="geometry" />
        </mxCell>
        <mxCell id="8rVLSjM-QixKW2bko5HG-92" value="A: ask.com nameserver" style="text;html=1;align=center;verticalAlign=middle;resizable=0;points=[];autosize=1;strokeColor=none;fillColor=none;fontFamily=Times New Roman;fontStyle=1;fontSize=14;" parent="1" vertex="1">
          <mxGeometry x="104.99999999999994" y="131.78" width="160" height="30" as="geometry" />
        </mxCell>
        <mxCell id="8rVLSjM-QixKW2bko5HG-93" value="Q: www.belair.com?" style="text;html=1;align=center;verticalAlign=middle;resizable=0;points=[];autosize=1;strokeColor=none;fillColor=none;fontFamily=Times New Roman;fontStyle=1;fontSize=14;" parent="1" vertex="1">
          <mxGeometry x="163.99999999999994" y="427.7800000000001" width="140" height="30" as="geometry" />
        </mxCell>
        <mxCell id="8rVLSjM-QixKW2bko5HG-94" value="A: ask belair.com name server" style="text;html=1;align=center;verticalAlign=middle;resizable=0;points=[];autosize=1;strokeColor=none;fillColor=none;fontFamily=Times New Roman;fontStyle=1;fontSize=14;" parent="1" vertex="1">
          <mxGeometry x="127.23999999999995" y="516.78" width="200" height="30" as="geometry" />
        </mxCell>
        <mxCell id="8rVLSjM-QixKW2bko5HG-95" value="(Root Signature)" style="text;html=1;align=center;verticalAlign=middle;resizable=0;points=[];autosize=1;strokeColor=none;fillColor=none;fontFamily=Times New Roman;fontStyle=1;fontSize=14;fontColor=#3399FF;" parent="1" vertex="1">
          <mxGeometry x="143.99999999999994" y="92.78000000000002" width="120" height="30" as="geometry" />
        </mxCell>
        <mxCell id="8rVLSjM-QixKW2bko5HG-96" value="(.com Signature)" style="text;html=1;align=center;verticalAlign=middle;resizable=0;points=[];autosize=1;strokeColor=none;fillColor=none;fontFamily=Times New Roman;fontStyle=1;fontSize=14;fontColor=#3399FF;" parent="1" vertex="1">
          <mxGeometry x="175.61999999999995" y="550.78" width="120" height="30" as="geometry" />
        </mxCell>
        <mxCell id="8rVLSjM-QixKW2bko5HG-97" value="Q: www.belair.com" style="text;html=1;align=center;verticalAlign=middle;resizable=0;points=[];autosize=1;strokeColor=none;fillColor=none;fontFamily=Times New Roman;fontStyle=1;fontSize=14;" parent="1" vertex="1">
          <mxGeometry x="84.23999999999995" y="782.78" width="140" height="30" as="geometry" />
        </mxCell>
        <mxCell id="8rVLSjM-QixKW2bko5HG-98" value="A:&amp;nbsp; 192.168.0.6" style="text;html=1;align=center;verticalAlign=middle;resizable=0;points=[];autosize=1;strokeColor=none;fillColor=none;fontFamily=Times New Roman;fontStyle=1;fontSize=14;" parent="1" vertex="1">
          <mxGeometry x="99.99999999999994" y="737.78" width="110" height="30" as="geometry" />
        </mxCell>
        <mxCell id="8rVLSjM-QixKW2bko5HG-99" value="(Signature)" style="text;html=1;align=center;verticalAlign=middle;resizable=0;points=[];autosize=1;strokeColor=none;fillColor=none;fontFamily=Times New Roman;fontStyle=1;fontSize=14;fontColor=#3399FF;" parent="1" vertex="1">
          <mxGeometry x="119.99999999999994" y="714.78" width="90" height="30" as="geometry" />
        </mxCell>
        <mxCell id="8rVLSjM-QixKW2bko5HG-104" value="HTTP&lt;br style=&quot;font-size: 14px;&quot;&gt;Request" style="text;html=1;align=center;verticalAlign=middle;resizable=0;points=[];autosize=1;strokeColor=none;fillColor=none;fontFamily=Times New Roman;fontStyle=1;fontSize=14;" parent="1" vertex="1">
          <mxGeometry x="-629.76" y="241.76" width="70" height="50" as="geometry" />
        </mxCell>
        <mxCell id="8rVLSjM-QixKW2bko5HG-105" value="HTTP&lt;br style=&quot;font-size: 14px;&quot;&gt;Response" style="text;html=1;align=center;verticalAlign=middle;resizable=0;points=[];autosize=1;strokeColor=none;fillColor=none;fontFamily=Times New Roman;fontStyle=1;fontSize=14;" parent="1" vertex="1">
          <mxGeometry x="-472.96000000000004" y="241.76" width="80" height="50" as="geometry" />
        </mxCell>
        <mxCell id="8rVLSjM-QixKW2bko5HG-106" value="" style="endArrow=none;html=1;rounded=0;exitX=0.5;exitY=1;exitDx=0;exitDy=0;" parent="1" source="8rVLSjM-QixKW2bko5HG-53" edge="1">
          <mxGeometry width="50" height="50" relative="1" as="geometry">
            <mxPoint x="-547.96" y="292.76" as="sourcePoint" />
            <mxPoint x="-547.96" y="342.76" as="targetPoint" />
          </mxGeometry>
        </mxCell>
        <mxCell id="8rVLSjM-QixKW2bko5HG-107" value="" style="endArrow=none;html=1;rounded=0;exitX=0.5;exitY=0;exitDx=0;exitDy=0;" parent="1" source="8rVLSjM-QixKW2bko5HG-64" edge="1">
          <mxGeometry width="50" height="50" relative="1" as="geometry">
            <mxPoint x="-487.96000000000004" y="243.76" as="sourcePoint" />
            <mxPoint x="-487.96000000000004" y="203.76" as="targetPoint" />
          </mxGeometry>
        </mxCell>
        <mxCell id="cUpOG-ys5x19nyp4rFHD-1" value="(DNSCRYPT)" style="text;html=1;align=center;verticalAlign=middle;resizable=0;points=[];autosize=1;fontFamily=Times New Roman;fontSize=14;fontStyle=1;labelBackgroundColor=default;fontColor=#33FF33;" parent="1" vertex="1">
          <mxGeometry x="-561.89" y="488.76" width="110" height="30" as="geometry" />
        </mxCell>
        <mxCell id="cUpOG-ys5x19nyp4rFHD-2" value=".com NS Public Key is: E2DR..." style="text;html=1;align=center;verticalAlign=middle;resizable=0;points=[];autosize=1;strokeColor=none;fillColor=none;fontColor=#3399FF;" parent="1" vertex="1">
          <mxGeometry x="103" y="112.77999999999997" width="190" height="30" as="geometry" />
        </mxCell>
        <mxCell id="cUpOG-ys5x19nyp4rFHD-3" value="belair.com NS Public Key is: 8TI0..." style="text;html=1;align=center;verticalAlign=middle;resizable=0;points=[];autosize=1;strokeColor=none;fillColor=none;fontColor=#3399FF;" parent="1" vertex="1">
          <mxGeometry x="136.62" y="534.78" width="210" height="30" as="geometry" />
        </mxCell>
        <mxCell id="cUpOG-ys5x19nyp4rFHD-4" value="" style="group" parent="1" vertex="1" connectable="0">
          <mxGeometry x="-584.63" y="653.76" width="120" height="100" as="geometry" />
        </mxCell>
        <mxCell id="cUpOG-ys5x19nyp4rFHD-5" value="" style="sketch=0;pointerEvents=1;shadow=0;dashed=0;html=1;strokeColor=#666666;fillColor=#f5f5f5;labelPosition=center;verticalLabelPosition=bottom;verticalAlign=top;outlineConnect=0;align=center;shape=mxgraph.office.concepts.website;fontColor=#333333;" parent="cUpOG-ys5x19nyp4rFHD-4" vertex="1">
          <mxGeometry width="120" height="100" as="geometry" />
        </mxCell>
        <mxCell id="cUpOG-ys5x19nyp4rFHD-6" value="" style="html=1;verticalLabelPosition=bottom;align=center;labelBackgroundColor=#ffffff;verticalAlign=top;strokeWidth=2;strokeColor=#6F0000;shadow=0;dashed=0;shape=mxgraph.ios7.icons.user;fillColor=#a20025;fontColor=#ffffff;" parent="cUpOG-ys5x19nyp4rFHD-4" vertex="1">
          <mxGeometry x="61" y="41" width="60" height="60" as="geometry" />
        </mxCell>
        <mxCell id="cUpOG-ys5x19nyp4rFHD-7" value="Fake&lt;br style=&quot;font-size: 17px;&quot;&gt;Website" style="text;html=1;align=center;verticalAlign=middle;resizable=0;points=[];autosize=1;strokeColor=none;fillColor=none;fontStyle=1;fontFamily=Times New Roman;fontSize=17;" parent="1" vertex="1">
          <mxGeometry x="-575.7600000000001" y="756.76" width="80" height="50" as="geometry" />
        </mxCell>
        <mxCell id="cUpOG-ys5x19nyp4rFHD-8" value="120.55.4.0" style="text;html=1;align=center;verticalAlign=middle;resizable=0;points=[];autosize=1;strokeColor=none;fillColor=none;fontStyle=1;fontFamily=Times New Roman;fontSize=17;" parent="1" vertex="1">
          <mxGeometry x="-585.7600000000001" y="806.76" width="100" height="30" as="geometry" />
        </mxCell>
        <mxCell id="cUpOG-ys5x19nyp4rFHD-9" value="" style="image;aspect=fixed;html=1;points=[];align=center;fontSize=12;image=img/lib/azure2/general/Globe_Warning.svg;" parent="1" vertex="1">
          <mxGeometry x="-620.7600000000001" y="836.76" width="25" height="29.47" as="geometry" />
        </mxCell>
        <mxCell id="cUpOG-ys5x19nyp4rFHD-10" value="&lt;strike&gt;https://&lt;/strike&gt;belair.com" style="text;html=1;align=center;verticalAlign=middle;resizable=0;points=[];autosize=1;strokeColor=none;fillColor=none;fontStyle=1;fontFamily=Times New Roman;fontSize=15;" parent="1" vertex="1">
          <mxGeometry x="-590.7600000000001" y="831.76" width="140" height="30" as="geometry" />
        </mxCell>
        <mxCell id="cUpOG-ys5x19nyp4rFHD-11" value="" style="html=1;verticalLabelPosition=bottom;align=center;labelBackgroundColor=#ffffff;verticalAlign=top;strokeWidth=2;shadow=0;dashed=0;shape=mxgraph.ios7.icons.locked;fillColor=#FF591C;strokeColor=#FF591C;" parent="1" vertex="1">
          <mxGeometry x="-408.76" y="422.78" width="10.8" height="13" as="geometry" />
        </mxCell>
        <mxCell id="cUpOG-ys5x19nyp4rFHD-14" value="" style="html=1;verticalLabelPosition=bottom;align=center;labelBackgroundColor=#ffffff;verticalAlign=top;strokeWidth=2;strokeColor=#6F0000;shadow=0;dashed=0;shape=mxgraph.ios7.icons.user;fillColor=#a20025;fontColor=#ffffff;" parent="1" vertex="1">
          <mxGeometry x="-397.96000000000004" y="663.76" width="80" height="80" as="geometry" />
        </mxCell>
        <mxCell id="cUpOG-ys5x19nyp4rFHD-15" value="Attacker" style="text;html=1;align=center;verticalAlign=middle;resizable=0;points=[];autosize=1;strokeColor=none;fillColor=none;fontStyle=1;fontFamily=Times New Roman;fontSize=17;" parent="1" vertex="1">
          <mxGeometry x="-402.96000000000004" y="753.76" width="90" height="30" as="geometry" />
        </mxCell>
        <mxCell id="cUpOG-ys5x19nyp4rFHD-16" value="" style="endArrow=classic;html=1;rounded=0;exitX=0.517;exitY=-0.027;exitDx=0;exitDy=0;exitPerimeter=0;fontColor=#000000;fillColor=#a20025;strokeColor=#6F0000;" parent="1" source="cUpOG-ys5x19nyp4rFHD-14" edge="1">
          <mxGeometry width="50" height="50" relative="1" as="geometry">
            <mxPoint x="-439" y="980" as="sourcePoint" />
            <mxPoint x="-139" y="515.9850310605493" as="targetPoint" />
          </mxGeometry>
        </mxCell>
        <mxCell id="cUpOG-ys5x19nyp4rFHD-17" value="" style="curved=1;endArrow=classic;html=1;rounded=0;exitX=-0.02;exitY=0.6;exitDx=0;exitDy=0;exitPerimeter=0;fillColor=#a20025;strokeColor=#6F0000;" parent="1" source="8rVLSjM-QixKW2bko5HG-31" edge="1">
          <mxGeometry width="50" height="50" relative="1" as="geometry">
            <mxPoint x="-584.76" y="403.76" as="sourcePoint" />
            <mxPoint x="-534.76" y="643.76" as="targetPoint" />
            <Array as="points">
              <mxPoint x="-624.76" y="413.76" />
              <mxPoint x="-633" y="470" />
              <mxPoint x="-604.76" y="543.76" />
            </Array>
          </mxGeometry>
        </mxCell>
        <mxCell id="cUpOG-ys5x19nyp4rFHD-18" value="" style="shape=mxgraph.sysml.x;rotation=20;fillColor=#fa6800;fontColor=#000000;strokeColor=#C73500;" parent="1" vertex="1">
          <mxGeometry x="-299.5200000000001" y="604.76" width="22.8" height="20" as="geometry" />
        </mxCell>
        <mxCell id="cUpOG-ys5x19nyp4rFHD-22" value="" style="shape=mxgraph.sysml.x;rotation=0;fillColor=#fa6800;fontColor=#000000;strokeColor=#C73500;direction=south;" parent="1" vertex="1">
          <mxGeometry x="-609.1600000000002" y="527.36" width="20" height="22.8" as="geometry" />
        </mxCell>
        <mxCell id="cUpOG-ys5x19nyp4rFHD-23" value="DNS with DNSSEC and&amp;nbsp; DSNSCRYPT&amp;nbsp;" style="text;html=1;align=center;verticalAlign=middle;resizable=0;points=[];autosize=1;strokeColor=none;fillColor=none;fontSize=18;fontStyle=5;fontFamily=Times New Roman;" parent="1" vertex="1">
          <mxGeometry x="-209" y="3.76" width="330" height="40" as="geometry" />
        </mxCell>
        <mxCell id="cUpOG-ys5x19nyp4rFHD-24" value="&lt;div style=&quot;text-align: justify; font-size: 16px;&quot;&gt;&lt;span style=&quot;background-color: initial; font-size: 16px;&quot;&gt;&lt;u&gt;Key:&lt;/u&gt;&lt;/span&gt;&lt;/div&gt;&lt;div style=&quot;text-align: justify; font-size: 16px;&quot;&gt;&lt;span style=&quot;background-color: initial; font-size: 16px;&quot;&gt;&lt;u&gt;&lt;br&gt;&lt;/u&gt;&lt;/span&gt;&lt;/div&gt;&lt;div style=&quot;text-align: justify; font-size: 16px;&quot;&gt;&lt;span style=&quot;background-color: initial; font-size: 16px;&quot;&gt;NS - Name Server&lt;/span&gt;&lt;/div&gt;&lt;div style=&quot;text-align: justify; font-size: 16px;&quot;&gt;&lt;span style=&quot;background-color: initial; font-size: 16px;&quot;&gt;Q - Question&lt;/span&gt;&lt;/div&gt;&lt;div style=&quot;text-align: justify; font-size: 16px;&quot;&gt;&lt;span style=&quot;background-color: initial; font-size: 16px;&quot;&gt;A - Answer&amp;nbsp;&lt;/span&gt;&lt;/div&gt;&lt;div style=&quot;text-align: justify; font-size: 16px;&quot;&gt;&lt;span style=&quot;background-color: initial; font-size: 16px;&quot;&gt;Red - Attacker&lt;/span&gt;&lt;/div&gt;&lt;div style=&quot;text-align: justify; font-size: 16px;&quot;&gt;&lt;span style=&quot;background-color: initial; font-size: 16px;&quot;&gt;Blue - DNSEC&lt;/span&gt;&lt;/div&gt;&lt;div style=&quot;text-align: justify; font-size: 16px;&quot;&gt;&lt;span style=&quot;background-color: initial; font-size: 16px;&quot;&gt;Green - DNSCRYPT&lt;/span&gt;&lt;/div&gt;" style="text;html=1;align=center;verticalAlign=middle;resizable=0;points=[];autosize=1;strokeColor=none;fillColor=none;fontSize=16;fontFamily=Times New Roman;" parent="1" vertex="1">
          <mxGeometry x="-160.00000000000003" y="770" width="160" height="170" as="geometry" />
        </mxCell>
        <mxCell id="u9ET2DzGuzJ3gETEcNsX-1" value="(DNSCRYPT)" style="text;html=1;align=center;verticalAlign=middle;resizable=0;points=[];autosize=1;fontFamily=Times New Roman;fontSize=14;fontStyle=1;labelBackgroundColor=default;fontColor=#33FF33;" parent="1" vertex="1">
          <mxGeometry x="-124" y="524.78" width="110" height="30" as="geometry" />
        </mxCell>
        <mxCell id="u9ET2DzGuzJ3gETEcNsX-2" value="TLD" style="text;html=1;align=center;verticalAlign=middle;resizable=0;points=[];autosize=1;strokeColor=none;fillColor=none;fontFamily=Times New Roman;fontStyle=1;fontSize=15;" parent="1" vertex="1">
          <mxGeometry x="363.61999999999995" y="377.0000000000001" width="50" height="30" as="geometry" />
        </mxCell>
      </root>
    </mxGraphModel>
  </diagram>
  <diagram id="5nxdTqgT32Vm_-_og5fG" name="System Architecture">
    <mxGraphModel dx="2626" dy="1001" grid="1" gridSize="10" guides="1" tooltips="1" connect="1" arrows="1" fold="1" page="1" pageScale="1" pageWidth="827" pageHeight="1169" math="0" shadow="0">
      <root>
        <mxCell id="0" />
        <mxCell id="1" parent="0" />
        <mxCell id="vT1ss5Xz-P-g3f9idbJR-94" value="" style="whiteSpace=wrap;html=1;aspect=fixed;fillColor=none;strokeColor=#3399FF;perimeterSpacing=0;strokeWidth=2;" parent="1" vertex="1">
          <mxGeometry x="-239.99999999999994" y="819.8599999999999" width="190.38" height="190.38" as="geometry" />
        </mxCell>
        <mxCell id="vT1ss5Xz-P-g3f9idbJR-92" value="" style="whiteSpace=wrap;html=1;aspect=fixed;fillColor=none;strokeColor=#3399FF;perimeterSpacing=0;strokeWidth=2;" parent="1" vertex="1">
          <mxGeometry x="-560.0699999999999" y="824.81" width="190.38" height="190.38" as="geometry" />
        </mxCell>
        <mxCell id="vT1ss5Xz-P-g3f9idbJR-1" value="" style="html=1;verticalLabelPosition=bottom;align=center;labelBackgroundColor=#ffffff;verticalAlign=top;strokeWidth=2;strokeColor=#000000;shadow=0;dashed=0;shape=mxgraph.ios7.icons.user;fillColor=#FFFFFF;fontColor=#ffffff;" parent="1" vertex="1">
          <mxGeometry x="-475.26" y="289.69" width="100" height="100" as="geometry" />
        </mxCell>
        <mxCell id="vT1ss5Xz-P-g3f9idbJR-2" value="Internet User&lt;br style=&quot;font-size: 15px;&quot;&gt;" style="text;html=1;align=center;verticalAlign=middle;resizable=0;points=[];autosize=1;strokeColor=none;fillColor=none;fontFamily=Times New Roman;fontStyle=1;fontSize=15;" parent="1" vertex="1">
          <mxGeometry x="-474" y="382.69" width="110" height="30" as="geometry" />
        </mxCell>
        <mxCell id="vT1ss5Xz-P-g3f9idbJR-3" value="Web Server" style="text;html=1;align=center;verticalAlign=middle;resizable=0;points=[];autosize=1;strokeColor=none;fillColor=none;fontFamily=Times New Roman;fontStyle=1;fontSize=15;" parent="1" vertex="1">
          <mxGeometry x="-475.26" y="156.69000000000003" width="100" height="30" as="geometry" />
        </mxCell>
        <mxCell id="vT1ss5Xz-P-g3f9idbJR-4" value="" style="image;points=[];aspect=fixed;html=1;align=center;shadow=0;dashed=0;image=img/lib/allied_telesis/computer_and_terminals/Personal_Computer.svg;direction=east;" parent="1" vertex="1">
          <mxGeometry x="-466.25" y="40" width="87.74" height="118.9" as="geometry" />
        </mxCell>
        <mxCell id="vT1ss5Xz-P-g3f9idbJR-5" value="" style="endArrow=classic;html=1;rounded=0;exitX=0.5;exitY=0;exitDx=0;exitDy=0;entryX=0.283;entryY=0.985;entryDx=0;entryDy=0;entryPerimeter=0;" parent="1" source="vT1ss5Xz-P-g3f9idbJR-19" target="vT1ss5Xz-P-g3f9idbJR-3" edge="1">
          <mxGeometry width="50" height="50" relative="1" as="geometry">
            <mxPoint x="-447.0401899101107" y="234.69972999443098" as="sourcePoint" />
            <mxPoint x="-447" y="196.24" as="targetPoint" />
          </mxGeometry>
        </mxCell>
        <mxCell id="vT1ss5Xz-P-g3f9idbJR-6" value="" style="endArrow=classic;html=1;rounded=0;entryX=0.653;entryY=0.065;entryDx=0;entryDy=0;entryPerimeter=0;exitX=0.5;exitY=1;exitDx=0;exitDy=0;" parent="1" source="vT1ss5Xz-P-g3f9idbJR-21" target="vT1ss5Xz-P-g3f9idbJR-1" edge="1">
          <mxGeometry width="50" height="50" relative="1" as="geometry">
            <mxPoint x="-410" y="262.24" as="sourcePoint" />
            <mxPoint x="-350" y="296.24" as="targetPoint" />
          </mxGeometry>
        </mxCell>
        <mxCell id="vT1ss5Xz-P-g3f9idbJR-7" value="" style="edgeStyle=elbowEdgeStyle;elbow=horizontal;endArrow=classic;html=1;curved=0;rounded=0;endSize=8;startSize=8;exitX=0.5;exitY=1;exitDx=0;exitDy=0;strokeColor=#33FF33;entryX=0.249;entryY=0.036;entryDx=0;entryDy=0;entryPerimeter=0;" parent="1" source="vT1ss5Xz-P-g3f9idbJR-22" target="vT1ss5Xz-P-g3f9idbJR-9" edge="1">
          <mxGeometry width="50" height="50" relative="1" as="geometry">
            <mxPoint x="-499.94000000000005" y="602.67" as="sourcePoint" />
            <mxPoint x="-248.74" y="462.67" as="targetPoint" />
            <Array as="points">
              <mxPoint x="-438.74" y="472.67" />
              <mxPoint x="-438.74" y="442.67" />
              <mxPoint x="-428.74" y="492.67" />
              <mxPoint x="-408.74" y="512.67" />
              <mxPoint x="-437.74" y="452.67" />
              <mxPoint x="-477.74" y="382.67" />
              <mxPoint x="-467.74" y="462.67" />
            </Array>
          </mxGeometry>
        </mxCell>
        <mxCell id="vT1ss5Xz-P-g3f9idbJR-8" value="Q: www.belair.com?" style="edgeLabel;html=1;align=center;verticalAlign=middle;resizable=0;points=[];fontFamily=Times New Roman;fontStyle=1;fontSize=13;" parent="vT1ss5Xz-P-g3f9idbJR-7" vertex="1" connectable="0">
          <mxGeometry x="-0.5524" y="1" relative="1" as="geometry">
            <mxPoint x="-62" y="17" as="offset" />
          </mxGeometry>
        </mxCell>
        <mxCell id="vT1ss5Xz-P-g3f9idbJR-9" value="" style="verticalLabelPosition=bottom;sketch=0;aspect=fixed;html=1;verticalAlign=top;strokeColor=none;align=center;outlineConnect=0;shape=mxgraph.citrix.dns_server;" parent="1" vertex="1">
          <mxGeometry x="-463.50000000000006" y="520.45" width="99.24" height="120" as="geometry" />
        </mxCell>
        <mxCell id="vT1ss5Xz-P-g3f9idbJR-10" value="" style="verticalLabelPosition=bottom;sketch=0;aspect=fixed;html=1;verticalAlign=top;strokeColor=none;align=center;outlineConnect=0;shape=mxgraph.citrix.dns_server;" parent="1" vertex="1">
          <mxGeometry x="-514.5" y="841.2400000000001" width="99.24" height="120" as="geometry" />
        </mxCell>
        <mxCell id="vT1ss5Xz-P-g3f9idbJR-11" value="" style="verticalLabelPosition=bottom;sketch=0;aspect=fixed;html=1;verticalAlign=top;strokeColor=none;align=center;outlineConnect=0;shape=mxgraph.citrix.dns_server;" parent="1" vertex="1">
          <mxGeometry x="-182.62" y="851.24" width="99.24" height="120" as="geometry" />
        </mxCell>
        <mxCell id="vT1ss5Xz-P-g3f9idbJR-12" value="" style="verticalLabelPosition=bottom;sketch=0;aspect=fixed;html=1;verticalAlign=top;strokeColor=none;align=center;outlineConnect=0;shape=mxgraph.citrix.dns_server;" parent="1" vertex="1">
          <mxGeometry x="-760" y="860" width="99.24" height="120" as="geometry" />
        </mxCell>
        <mxCell id="vT1ss5Xz-P-g3f9idbJR-13" value="" style="endArrow=classic;html=1;rounded=0;exitX=0.5;exitY=1;exitDx=0;exitDy=0;" parent="1" source="vT1ss5Xz-P-g3f9idbJR-24" target="vT1ss5Xz-P-g3f9idbJR-10" edge="1">
          <mxGeometry width="50" height="50" relative="1" as="geometry">
            <mxPoint x="-422" y="666.24" as="sourcePoint" />
            <mxPoint x="-460" y="826.24" as="targetPoint" />
          </mxGeometry>
        </mxCell>
        <mxCell id="vT1ss5Xz-P-g3f9idbJR-74" value="Q: www.belair.com?" style="edgeLabel;html=1;align=center;verticalAlign=middle;resizable=0;points=[];fontFamily=Times New Roman;fontStyle=1;fontSize=14;" parent="vT1ss5Xz-P-g3f9idbJR-13" vertex="1" connectable="0">
          <mxGeometry x="-0.183" relative="1" as="geometry">
            <mxPoint x="-70" y="-1" as="offset" />
          </mxGeometry>
        </mxCell>
        <mxCell id="vT1ss5Xz-P-g3f9idbJR-14" value="" style="endArrow=classic;html=1;rounded=0;exitX=0.5;exitY=0;exitDx=0;exitDy=0;" parent="1" source="vT1ss5Xz-P-g3f9idbJR-30" edge="1">
          <mxGeometry width="50" height="50" relative="1" as="geometry">
            <mxPoint x="-432.9717828411418" y="785.2427692166584" as="sourcePoint" />
            <mxPoint x="-430" y="676.24" as="targetPoint" />
          </mxGeometry>
        </mxCell>
        <mxCell id="vT1ss5Xz-P-g3f9idbJR-77" value="A: ask belair.com name server" style="edgeLabel;html=1;align=center;verticalAlign=middle;resizable=0;points=[];fontFamily=Times New Roman;fontStyle=1;fontSize=13;" parent="vT1ss5Xz-P-g3f9idbJR-14" vertex="1" connectable="0">
          <mxGeometry x="0.1184" relative="1" as="geometry">
            <mxPoint x="92" y="23" as="offset" />
          </mxGeometry>
        </mxCell>
        <mxCell id="vT1ss5Xz-P-g3f9idbJR-78" value="&lt;font style=&quot;font-size: 12px;&quot;&gt;belair.com NS Public Key is: 8TI0...&lt;/font&gt;" style="edgeLabel;html=1;align=center;verticalAlign=middle;resizable=0;points=[];fontColor=#3399FF;fontFamily=Times New Roman;fontStyle=1;fontSize=12;" parent="vT1ss5Xz-P-g3f9idbJR-14" vertex="1" connectable="0">
          <mxGeometry x="-0.108" relative="1" as="geometry">
            <mxPoint x="97" y="26" as="offset" />
          </mxGeometry>
        </mxCell>
        <mxCell id="vT1ss5Xz-P-g3f9idbJR-79" value="(.com Signature)" style="edgeLabel;html=1;align=center;verticalAlign=middle;resizable=0;points=[];fontColor=#3399FF;fontFamily=Times New Roman;fontStyle=1;fontSize=13;" parent="vT1ss5Xz-P-g3f9idbJR-14" vertex="1" connectable="0">
          <mxGeometry x="-0.4129" relative="1" as="geometry">
            <mxPoint x="82" y="26" as="offset" />
          </mxGeometry>
        </mxCell>
        <mxCell id="vT1ss5Xz-P-g3f9idbJR-15" value="" style="edgeStyle=elbowEdgeStyle;elbow=horizontal;endArrow=classic;html=1;curved=0;rounded=0;endSize=8;startSize=8;exitX=0;exitY=0.5;exitDx=0;exitDy=0;" parent="1" source="vT1ss5Xz-P-g3f9idbJR-23" target="vT1ss5Xz-P-g3f9idbJR-12" edge="1">
          <mxGeometry width="50" height="50" relative="1" as="geometry">
            <mxPoint x="-648.0358000000001" y="650" as="sourcePoint" />
            <mxPoint x="-690" y="790" as="targetPoint" />
            <Array as="points">
              <mxPoint x="-720" y="810" />
              <mxPoint x="-756" y="777.22" />
              <mxPoint x="-665" y="767.22" />
              <mxPoint x="-656" y="767.22" />
              <mxPoint x="-648" y="760" />
            </Array>
          </mxGeometry>
        </mxCell>
        <mxCell id="vT1ss5Xz-P-g3f9idbJR-75" value="Q: www.belair.com" style="edgeLabel;html=1;align=center;verticalAlign=middle;resizable=0;points=[];fontFamily=Times New Roman;fontStyle=1;fontSize=14;" parent="vT1ss5Xz-P-g3f9idbJR-15" vertex="1" connectable="0">
          <mxGeometry x="0.6716" y="2" relative="1" as="geometry">
            <mxPoint x="-32" y="-27" as="offset" />
          </mxGeometry>
        </mxCell>
        <mxCell id="vT1ss5Xz-P-g3f9idbJR-16" value="" style="edgeStyle=elbowEdgeStyle;elbow=horizontal;endArrow=classic;html=1;curved=0;rounded=0;endSize=8;startSize=8;exitX=0.5;exitY=0;exitDx=0;exitDy=0;entryX=-0.065;entryY=0.715;entryDx=0;entryDy=0;entryPerimeter=0;" parent="1" source="vT1ss5Xz-P-g3f9idbJR-20" target="vT1ss5Xz-P-g3f9idbJR-9" edge="1">
          <mxGeometry width="50" height="50" relative="1" as="geometry">
            <mxPoint x="-260" y="870" as="sourcePoint" />
            <mxPoint x="-240" y="610" as="targetPoint" />
            <Array as="points">
              <mxPoint x="-676" y="750" />
              <mxPoint x="-660" y="770" />
              <mxPoint x="-260" y="690" />
              <mxPoint x="-320" y="710" />
              <mxPoint x="-470" y="710" />
              <mxPoint x="-530" y="680" />
              <mxPoint x="-660" y="690" />
              <mxPoint x="-480" y="660" />
              <mxPoint x="-650" y="730" />
              <mxPoint x="-250" y="760" />
              <mxPoint x="-230" y="790" />
              <mxPoint x="-696" y="747.22" />
              <mxPoint x="-636" y="757.22" />
              <mxPoint x="-616" y="780" />
            </Array>
          </mxGeometry>
        </mxCell>
        <mxCell id="vT1ss5Xz-P-g3f9idbJR-80" value="(Signature)" style="edgeLabel;html=1;align=center;verticalAlign=middle;resizable=0;points=[];fontFamily=Times New Roman;fontStyle=1;fontSize=15;fontColor=#3399FF;" parent="vT1ss5Xz-P-g3f9idbJR-16" vertex="1" connectable="0">
          <mxGeometry x="0.2696" y="-4" relative="1" as="geometry">
            <mxPoint x="22" y="40" as="offset" />
          </mxGeometry>
        </mxCell>
        <mxCell id="vT1ss5Xz-P-g3f9idbJR-81" value="A:&amp;nbsp; 192.168.0.6" style="edgeLabel;html=1;align=center;verticalAlign=middle;resizable=0;points=[];fontFamily=Times New Roman;fontStyle=1;fontSize=14;fontColor=#FFFFFF;" parent="vT1ss5Xz-P-g3f9idbJR-16" vertex="1" connectable="0">
          <mxGeometry x="0.4498" y="-1" relative="1" as="geometry">
            <mxPoint x="-18" y="23" as="offset" />
          </mxGeometry>
        </mxCell>
        <mxCell id="vT1ss5Xz-P-g3f9idbJR-17" value="" style="edgeStyle=elbowEdgeStyle;elbow=horizontal;endArrow=classic;html=1;curved=0;rounded=0;endSize=8;startSize=8;exitX=0.5;exitY=0;exitDx=0;exitDy=0;" parent="1" source="vT1ss5Xz-P-g3f9idbJR-25" target="vT1ss5Xz-P-g3f9idbJR-9" edge="1">
          <mxGeometry width="50" height="50" relative="1" as="geometry">
            <mxPoint x="329.05999999999995" y="450.24" as="sourcePoint" />
            <mxPoint x="-380" y="586" as="targetPoint" />
            <Array as="points">
              <mxPoint x="-110" y="710" />
              <mxPoint x="-40" y="726.24" />
              <mxPoint x="-10" y="376.24" />
              <mxPoint x="90" y="346.24" />
              <mxPoint x="20" y="316.24" />
              <mxPoint x="24.060000000000002" y="597.46" />
              <mxPoint x="89.05999999999995" y="470.24" />
              <mxPoint x="89.05999999999995" y="470.24" />
              <mxPoint x="89.05999999999995" y="530.2400000000001" />
              <mxPoint x="99.05999999999995" y="530.2400000000001" />
              <mxPoint x="169.05999999999995" y="450.24" />
              <mxPoint x="89.05999999999995" y="439.24" />
            </Array>
          </mxGeometry>
        </mxCell>
        <mxCell id="vT1ss5Xz-P-g3f9idbJR-82" value="(Root Signature)" style="edgeLabel;html=1;align=center;verticalAlign=middle;resizable=0;points=[];fontFamily=Times New Roman;fontStyle=1;fontSize=13;fontColor=#3399FF;" parent="vT1ss5Xz-P-g3f9idbJR-17" vertex="1" connectable="0">
          <mxGeometry x="-0.5204" y="-1" relative="1" as="geometry">
            <mxPoint x="-111" y="-186" as="offset" />
          </mxGeometry>
        </mxCell>
        <mxCell id="vT1ss5Xz-P-g3f9idbJR-83" value=".com NS Public Key is: E2DR..." style="edgeLabel;html=1;align=center;verticalAlign=middle;resizable=0;points=[];fontFamily=Times New Roman;fontStyle=1;fontSize=13;fontColor=#3399FF;" parent="vT1ss5Xz-P-g3f9idbJR-17" vertex="1" connectable="0">
          <mxGeometry x="-0.6056" y="1" relative="1" as="geometry">
            <mxPoint x="-109" y="-187" as="offset" />
          </mxGeometry>
        </mxCell>
        <mxCell id="vT1ss5Xz-P-g3f9idbJR-84" value="A: ask.com nameserver" style="edgeLabel;html=1;align=center;verticalAlign=middle;resizable=0;points=[];fontStyle=1;fontSize=13;fontColor=#FFFFFF;" parent="vT1ss5Xz-P-g3f9idbJR-17" vertex="1" connectable="0">
          <mxGeometry x="-0.7013" y="3" relative="1" as="geometry">
            <mxPoint x="-117" y="-191" as="offset" />
          </mxGeometry>
        </mxCell>
        <mxCell id="vT1ss5Xz-P-g3f9idbJR-18" value="" style="edgeStyle=elbowEdgeStyle;elbow=horizontal;endArrow=classic;html=1;curved=0;rounded=0;endSize=8;startSize=8;exitX=1.128;exitY=0.478;exitDx=0;exitDy=0;entryX=0.403;entryY=0;entryDx=0;entryDy=0;entryPerimeter=0;exitPerimeter=0;" parent="1" source="vT1ss5Xz-P-g3f9idbJR-31" target="vT1ss5Xz-P-g3f9idbJR-11" edge="1">
          <mxGeometry width="50" height="50" relative="1" as="geometry">
            <mxPoint x="-384.2600000000002" y="611.24" as="sourcePoint" />
            <mxPoint x="-90" y="826.24" as="targetPoint" />
            <Array as="points">
              <mxPoint x="-143" y="760" />
              <mxPoint x="-90" y="626.24" />
              <mxPoint x="-5" y="791.24" />
              <mxPoint x="59.99999999999994" y="844.0200000000001" />
              <mxPoint x="64.99999999999994" y="834.0200000000001" />
              <mxPoint x="54.99999999999994" y="874.0200000000001" />
              <mxPoint x="74.99999999999994" y="794.0200000000001" />
            </Array>
          </mxGeometry>
        </mxCell>
        <mxCell id="vT1ss5Xz-P-g3f9idbJR-88" value="Q: www.belair.com" style="edgeLabel;html=1;align=center;verticalAlign=middle;resizable=0;points=[];fontFamily=Times New Roman;fontStyle=1;fontSize=14;" parent="vT1ss5Xz-P-g3f9idbJR-18" vertex="1" connectable="0">
          <mxGeometry x="0.6225" relative="1" as="geometry">
            <mxPoint x="-77" y="-76" as="offset" />
          </mxGeometry>
        </mxCell>
        <mxCell id="vT1ss5Xz-P-g3f9idbJR-19" value="9" style="ellipse;whiteSpace=wrap;html=1;aspect=fixed;" parent="1" vertex="1">
          <mxGeometry x="-462.5" y="234.69" width="30" height="30" as="geometry" />
        </mxCell>
        <mxCell id="vT1ss5Xz-P-g3f9idbJR-20" value="7" style="ellipse;whiteSpace=wrap;html=1;aspect=fixed;" parent="1" vertex="1">
          <mxGeometry x="-690.76" y="845" width="30" height="30" as="geometry" />
        </mxCell>
        <mxCell id="vT1ss5Xz-P-g3f9idbJR-21" value="10" style="ellipse;whiteSpace=wrap;html=1;aspect=fixed;" parent="1" vertex="1">
          <mxGeometry x="-425.26" y="232.24" width="30" height="30" as="geometry" />
        </mxCell>
        <mxCell id="vT1ss5Xz-P-g3f9idbJR-22" value="1" style="ellipse;whiteSpace=wrap;html=1;aspect=fixed;" parent="1" vertex="1">
          <mxGeometry x="-454.26" y="411.69" width="30" height="30" as="geometry" />
        </mxCell>
        <mxCell id="vT1ss5Xz-P-g3f9idbJR-23" value="6" style="ellipse;whiteSpace=wrap;html=1;aspect=fixed;" parent="1" vertex="1">
          <mxGeometry x="-494.5" y="566.2399999999999" width="30" height="30" as="geometry" />
        </mxCell>
        <mxCell id="vT1ss5Xz-P-g3f9idbJR-24" value="4" style="ellipse;whiteSpace=wrap;html=1;aspect=fixed;" parent="1" vertex="1">
          <mxGeometry x="-479.88000000000005" y="666.24" width="30" height="30" as="geometry" />
        </mxCell>
        <mxCell id="vT1ss5Xz-P-g3f9idbJR-25" value="3" style="ellipse;whiteSpace=wrap;html=1;aspect=fixed;" parent="1" vertex="1">
          <mxGeometry x="-125.00000000000006" y="830" width="30" height="30" as="geometry" />
        </mxCell>
        <mxCell id="vT1ss5Xz-P-g3f9idbJR-26" value="" style="edgeStyle=elbowEdgeStyle;elbow=horizontal;endArrow=classic;html=1;curved=0;rounded=0;endSize=8;startSize=8;exitX=0.605;exitY=0.071;exitDx=0;exitDy=0;fillColor=#60a917;strokeColor=#33FF33;exitPerimeter=0;entryX=0.679;entryY=1.023;entryDx=0;entryDy=0;entryPerimeter=0;" parent="1" source="vT1ss5Xz-P-g3f9idbJR-28" target="vT1ss5Xz-P-g3f9idbJR-2" edge="1">
          <mxGeometry width="50" height="50" relative="1" as="geometry">
            <mxPoint x="-326.74" y="487.67" as="sourcePoint" />
            <mxPoint x="-399" y="416.24" as="targetPoint" />
            <Array as="points">
              <mxPoint x="-398.74" y="472.67" />
              <mxPoint x="-348.74" y="562.67" />
              <mxPoint x="-408.74" y="472.67" />
              <mxPoint x="-476.74" y="442.67" />
              <mxPoint x="-476.74" y="492.67" />
              <mxPoint x="-366.74" y="462.67" />
              <mxPoint x="-488.94000000000005" y="562.67" />
              <mxPoint x="-488.94000000000005" y="532.67" />
              <mxPoint x="-484.94000000000005" y="446.67" />
            </Array>
          </mxGeometry>
        </mxCell>
        <mxCell id="vT1ss5Xz-P-g3f9idbJR-27" value="A:&amp;nbsp; 192.168.0.6" style="edgeLabel;html=1;align=center;verticalAlign=middle;resizable=0;points=[];fontFamily=Times New Roman;fontStyle=1;fontSize=14;" parent="vT1ss5Xz-P-g3f9idbJR-26" vertex="1" connectable="0">
          <mxGeometry x="0.5512" y="1" relative="1" as="geometry">
            <mxPoint x="65" y="28" as="offset" />
          </mxGeometry>
        </mxCell>
        <mxCell id="vT1ss5Xz-P-g3f9idbJR-28" value="8" style="ellipse;whiteSpace=wrap;html=1;aspect=fixed;" parent="1" vertex="1">
          <mxGeometry x="-415.2600000000001" y="494.67000000000013" width="30" height="30" as="geometry" />
        </mxCell>
        <mxCell id="vT1ss5Xz-P-g3f9idbJR-30" value="5" style="ellipse;whiteSpace=wrap;html=1;aspect=fixed;" parent="1" vertex="1">
          <mxGeometry x="-443.00000000000006" y="824.8100000000001" width="30" height="30" as="geometry" />
        </mxCell>
        <mxCell id="vT1ss5Xz-P-g3f9idbJR-31" value="2" style="ellipse;whiteSpace=wrap;html=1;aspect=fixed;" parent="1" vertex="1">
          <mxGeometry x="-359.26000000000005" y="596.2400000000001" width="30" height="30" as="geometry" />
        </mxCell>
        <mxCell id="vT1ss5Xz-P-g3f9idbJR-32" value="Recursive Name Server" style="text;html=1;align=center;verticalAlign=middle;resizable=0;points=[];autosize=1;strokeColor=none;fillColor=none;fontFamily=Times New Roman;fontStyle=1;fontSize=15;" parent="1" vertex="1">
          <mxGeometry x="-500.62000000000006" y="636.24" width="170" height="30" as="geometry" />
        </mxCell>
        <mxCell id="vT1ss5Xz-P-g3f9idbJR-33" value="belair.com Name Server" style="text;html=1;align=center;verticalAlign=middle;resizable=0;points=[];autosize=1;strokeColor=none;fillColor=none;fontFamily=Times New Roman;fontStyle=1;fontSize=15;" parent="1" vertex="1">
          <mxGeometry x="-800.38" y="990" width="180" height="30" as="geometry" />
        </mxCell>
        <mxCell id="vT1ss5Xz-P-g3f9idbJR-34" value=".com Name server" style="text;html=1;align=center;verticalAlign=middle;resizable=0;points=[];autosize=1;strokeColor=none;fillColor=none;fontFamily=Times New Roman;fontStyle=1;fontSize=15;" parent="1" vertex="1">
          <mxGeometry x="-533.26" y="991.2400000000001" width="140" height="30" as="geometry" />
        </mxCell>
        <mxCell id="vT1ss5Xz-P-g3f9idbJR-35" value="Root Name Server" style="text;html=1;align=center;verticalAlign=middle;resizable=0;points=[];autosize=1;strokeColor=none;fillColor=none;fontFamily=Times New Roman;fontStyle=1;fontSize=15;" parent="1" vertex="1">
          <mxGeometry x="-203.0000000000001" y="980.24" width="140" height="30" as="geometry" />
        </mxCell>
        <mxCell id="vT1ss5Xz-P-g3f9idbJR-45" value="HTTP&lt;br style=&quot;font-size: 14px;&quot;&gt;Request" style="text;html=1;align=center;verticalAlign=middle;resizable=0;points=[];autosize=1;strokeColor=none;fillColor=none;fontFamily=Times New Roman;fontStyle=1;fontSize=14;" parent="1" vertex="1">
          <mxGeometry x="-545.26" y="224.69" width="70" height="50" as="geometry" />
        </mxCell>
        <mxCell id="vT1ss5Xz-P-g3f9idbJR-46" value="HTTP&lt;br style=&quot;font-size: 14px;&quot;&gt;Response" style="text;html=1;align=center;verticalAlign=middle;resizable=0;points=[];autosize=1;strokeColor=none;fillColor=none;fontFamily=Times New Roman;fontStyle=1;fontSize=14;" parent="1" vertex="1">
          <mxGeometry x="-400" y="222.24000000000004" width="80" height="50" as="geometry" />
        </mxCell>
        <mxCell id="vT1ss5Xz-P-g3f9idbJR-47" value="" style="endArrow=none;html=1;rounded=0;exitX=0.5;exitY=1;exitDx=0;exitDy=0;entryX=0.28;entryY=0.021;entryDx=0;entryDy=0;entryPerimeter=0;" parent="1" source="vT1ss5Xz-P-g3f9idbJR-19" target="vT1ss5Xz-P-g3f9idbJR-1" edge="1">
          <mxGeometry width="50" height="50" relative="1" as="geometry">
            <mxPoint x="-453.51" y="273.69" as="sourcePoint" />
            <mxPoint x="-453.51" y="323.69" as="targetPoint" />
          </mxGeometry>
        </mxCell>
        <mxCell id="vT1ss5Xz-P-g3f9idbJR-48" value="" style="endArrow=none;html=1;rounded=0;exitX=0.5;exitY=0;exitDx=0;exitDy=0;entryX=0.657;entryY=1.073;entryDx=0;entryDy=0;entryPerimeter=0;" parent="1" source="vT1ss5Xz-P-g3f9idbJR-21" target="vT1ss5Xz-P-g3f9idbJR-3" edge="1">
          <mxGeometry width="50" height="50" relative="1" as="geometry">
            <mxPoint x="-411" y="216.24" as="sourcePoint" />
            <mxPoint x="-410" y="196.24" as="targetPoint" />
          </mxGeometry>
        </mxCell>
        <mxCell id="vT1ss5Xz-P-g3f9idbJR-49" value="(DNSCRYPT)" style="text;html=1;align=center;verticalAlign=middle;resizable=0;points=[];autosize=1;fontFamily=Times New Roman;fontSize=14;fontStyle=1;labelBackgroundColor=default;fontColor=#33FF33;" parent="1" vertex="1">
          <mxGeometry x="-576.25" y="352.69000000000005" width="110" height="30" as="geometry" />
        </mxCell>
        <mxCell id="vT1ss5Xz-P-g3f9idbJR-59" value="" style="html=1;verticalLabelPosition=bottom;align=center;labelBackgroundColor=#ffffff;verticalAlign=top;strokeWidth=2;shadow=0;dashed=0;shape=mxgraph.ios7.icons.locked;fillColor=#FF591C;strokeColor=#FF591C;" parent="1" vertex="1">
          <mxGeometry x="-393.25999999999993" y="452.23999999999995" width="10.8" height="13" as="geometry" />
        </mxCell>
        <mxCell id="vT1ss5Xz-P-g3f9idbJR-66" value="System Architecture&amp;nbsp;" style="text;html=1;align=center;verticalAlign=middle;resizable=0;points=[];autosize=1;strokeColor=none;fillColor=none;fontSize=18;fontStyle=5;fontFamily=Times New Roman;" parent="1" vertex="1">
          <mxGeometry x="-527.26" width="180" height="40" as="geometry" />
        </mxCell>
        <mxCell id="vT1ss5Xz-P-g3f9idbJR-67" value="&lt;div style=&quot;text-align: justify; font-size: 16px;&quot;&gt;&lt;span style=&quot;background-color: initial; font-size: 16px;&quot;&gt;&lt;u&gt;Key:&lt;/u&gt;&lt;/span&gt;&lt;/div&gt;&lt;div style=&quot;text-align: justify; font-size: 16px;&quot;&gt;&lt;span style=&quot;background-color: initial; font-size: 16px;&quot;&gt;&lt;u&gt;&lt;br&gt;&lt;/u&gt;&lt;/span&gt;&lt;/div&gt;&lt;div style=&quot;text-align: justify; font-size: 16px;&quot;&gt;&lt;span style=&quot;background-color: initial; font-size: 16px;&quot;&gt;NS - Name Server&lt;/span&gt;&lt;/div&gt;&lt;div style=&quot;text-align: justify; font-size: 16px;&quot;&gt;&lt;span style=&quot;background-color: initial; font-size: 16px;&quot;&gt;Q - Question&lt;/span&gt;&lt;/div&gt;&lt;div style=&quot;text-align: justify; font-size: 16px;&quot;&gt;&lt;span style=&quot;background-color: initial; font-size: 16px;&quot;&gt;A - Answer&amp;nbsp;&lt;/span&gt;&lt;/div&gt;&lt;div style=&quot;text-align: justify; font-size: 16px;&quot;&gt;&lt;span style=&quot;background-color: initial; font-size: 16px;&quot;&gt;Blue - DNSEC&lt;/span&gt;&lt;/div&gt;&lt;div style=&quot;text-align: justify; font-size: 16px;&quot;&gt;&lt;span style=&quot;background-color: initial; font-size: 16px;&quot;&gt;Green - DNSCRYPT&lt;/span&gt;&lt;/div&gt;" style="text;html=1;align=center;verticalAlign=middle;resizable=0;points=[];autosize=1;strokeColor=none;fillColor=none;fontSize=16;fontFamily=Times New Roman;" parent="1" vertex="1">
          <mxGeometry x="-820.76" y="344.67" width="160" height="150" as="geometry" />
        </mxCell>
        <mxCell id="vT1ss5Xz-P-g3f9idbJR-68" value="(DNSCRYPT)" style="text;html=1;align=center;verticalAlign=middle;resizable=0;points=[];autosize=1;fontFamily=Times New Roman;fontSize=14;fontStyle=1;labelBackgroundColor=default;fontColor=#33FF33;" parent="1" vertex="1">
          <mxGeometry x="-580" y="520.4499999999999" width="110" height="30" as="geometry" />
        </mxCell>
        <mxCell id="vT1ss5Xz-P-g3f9idbJR-69" value="TLD" style="text;html=1;align=center;verticalAlign=middle;resizable=0;points=[];autosize=1;strokeColor=none;fillColor=none;fontFamily=Times New Roman;fontStyle=1;fontSize=15;" parent="1" vertex="1">
          <mxGeometry x="-488.26000000000005" y="971.2400000000001" width="50" height="30" as="geometry" />
        </mxCell>
        <mxCell id="vT1ss5Xz-P-g3f9idbJR-91" value="" style="whiteSpace=wrap;html=1;aspect=fixed;fillColor=none;fontColor=#3399FF;strokeColor=#3399FF;perimeterSpacing=0;strokeWidth=2;" parent="1" vertex="1">
          <mxGeometry x="-800.38" y="831" width="190.38" height="190.38" as="geometry" />
        </mxCell>
        <mxCell id="vT1ss5Xz-P-g3f9idbJR-95" value="DNS ZONE C" style="text;html=1;align=center;verticalAlign=middle;resizable=0;points=[];autosize=1;strokeColor=none;fillColor=none;fontFamily=Times New Roman;fontStyle=1;fontSize=14;fontColor=#3399FF;" parent="1" vertex="1">
          <mxGeometry x="-765.38" y="1028" width="110" height="30" as="geometry" />
        </mxCell>
        <mxCell id="vT1ss5Xz-P-g3f9idbJR-96" value="DNS ZONE B" style="text;html=1;align=center;verticalAlign=middle;resizable=0;points=[];autosize=1;strokeColor=none;fillColor=none;fontStyle=1;fontFamily=Times New Roman;fontSize=14;fontColor=#3399FF;" parent="1" vertex="1">
          <mxGeometry x="-529.26" y="1028" width="110" height="30" as="geometry" />
        </mxCell>
        <mxCell id="vT1ss5Xz-P-g3f9idbJR-97" value="DNS ZONE A" style="text;html=1;align=center;verticalAlign=middle;resizable=0;points=[];autosize=1;strokeColor=none;fillColor=none;fontFamily=Times New Roman;fontStyle=1;fontSize=14;fontColor=#3399FF;" parent="1" vertex="1">
          <mxGeometry x="-188" y="1028" width="110" height="30" as="geometry" />
        </mxCell>
        <mxCell id="zmbP_3JOuiBDoxhZWUlW-1" value="" style="endArrow=none;dashed=1;html=1;dashPattern=1 3;strokeWidth=2;rounded=0;" parent="1" edge="1">
          <mxGeometry width="50" height="50" relative="1" as="geometry">
            <mxPoint x="-360" y="398" as="sourcePoint" />
            <mxPoint x="-370" y="50" as="targetPoint" />
            <Array as="points">
              <mxPoint x="-280" y="398" />
              <mxPoint x="-280" y="50" />
            </Array>
          </mxGeometry>
        </mxCell>
        <mxCell id="zmbP_3JOuiBDoxhZWUlW-2" value="" style="endArrow=classic;html=1;rounded=0;dashed=1;" parent="1" edge="1">
          <mxGeometry width="50" height="50" relative="1" as="geometry">
            <mxPoint x="-281" y="238" as="sourcePoint" />
            <mxPoint x="-191" y="238" as="targetPoint" />
          </mxGeometry>
        </mxCell>
        <mxCell id="zmbP_3JOuiBDoxhZWUlW-4" value="Tier &lt;br style=&quot;font-size: 15px;&quot;&gt;(Client)" style="edgeLabel;html=1;align=center;verticalAlign=middle;resizable=0;points=[];fontFamily=Times New Roman;fontStyle=1;fontSize=15;" parent="zmbP_3JOuiBDoxhZWUlW-2" vertex="1" connectable="0">
          <mxGeometry x="-0.3666" relative="1" as="geometry">
            <mxPoint x="93" as="offset" />
          </mxGeometry>
        </mxCell>
        <mxCell id="zmbP_3JOuiBDoxhZWUlW-5" value="Tier 1&lt;br&gt;(DNS SERVERS)" style="text;html=1;align=center;verticalAlign=middle;resizable=0;points=[];autosize=1;strokeColor=none;fillColor=none;fontFamily=Times New Roman;fontStyle=1;fontSize=15;" parent="1" vertex="1">
          <mxGeometry x="-507.26" y="1110" width="140" height="50" as="geometry" />
        </mxCell>
        <mxCell id="zmbP_3JOuiBDoxhZWUlW-8" value="Tier 2" style="text;html=1;align=center;verticalAlign=middle;resizable=0;points=[];autosize=1;strokeColor=none;fillColor=none;fontFamily=Times New Roman;fontStyle=1;fontSize=16;" parent="1" vertex="1">
          <mxGeometry x="-796.38" y="536.24" width="60" height="30" as="geometry" />
        </mxCell>
        <mxCell id="56wUAvGQTye6XupuebDu-1" value="" style="endArrow=none;dashed=1;html=1;rounded=0;strokeColor=#3399FF;" edge="1" parent="1">
          <mxGeometry width="50" height="50" relative="1" as="geometry">
            <mxPoint x="-810" y="1040" as="sourcePoint" />
            <mxPoint x="-40" y="1040" as="targetPoint" />
            <Array as="points">
              <mxPoint x="-810" y="1080" />
              <mxPoint x="-40" y="1080" />
            </Array>
          </mxGeometry>
        </mxCell>
        <mxCell id="56wUAvGQTye6XupuebDu-2" value="" style="endArrow=classic;html=1;rounded=0;dashed=1;dashPattern=1 1;strokeColor=#3399FF;" edge="1" parent="1">
          <mxGeometry width="50" height="50" relative="1" as="geometry">
            <mxPoint x="-440" y="1080" as="sourcePoint" />
            <mxPoint x="-440" y="1110" as="targetPoint" />
          </mxGeometry>
        </mxCell>
        <mxCell id="56wUAvGQTye6XupuebDu-6" value="" style="endArrow=classic;html=1;rounded=0;dashed=1;" edge="1" parent="1">
          <mxGeometry width="50" height="50" relative="1" as="geometry">
            <mxPoint x="-610" y="550" as="sourcePoint" />
            <mxPoint x="-735" y="550" as="targetPoint" />
          </mxGeometry>
        </mxCell>
        <mxCell id="56wUAvGQTye6XupuebDu-7" value="" style="endArrow=none;html=1;rounded=0;dashed=1;" edge="1" parent="1">
          <mxGeometry width="50" height="50" relative="1" as="geometry">
            <mxPoint x="-500" y="620" as="sourcePoint" />
            <mxPoint x="-500" y="500" as="targetPoint" />
            <Array as="points">
              <mxPoint x="-560" y="620" />
              <mxPoint x="-610" y="550" />
              <mxPoint x="-550" y="500" />
            </Array>
          </mxGeometry>
        </mxCell>
      </root>
    </mxGraphModel>
  </diagram>
</mxfile>
